<mxfile host="app.diagrams.net" modified="2024-10-11T08:51:14.800Z" agent="Mozilla/5.0 (Windows NT 10.0; Win64; x64) AppleWebKit/537.36 (KHTML, like Gecko) Chrome/129.0.0.0 Safari/537.36 Edg/129.0.0.0" etag="Hfn0Cwc_-p9r70yuk1Wg" version="24.7.0" type="github">
  <diagram name="第 1 页" id="xh0DvVpU-9EQWnGM0NwQ">
    <mxGraphModel dx="1979" dy="1143" grid="1" gridSize="10" guides="1" tooltips="1" connect="1" arrows="1" fold="1" page="1" pageScale="1" pageWidth="827" pageHeight="1169" math="0" shadow="0">
      <root>
        <mxCell id="0" />
        <mxCell id="1" parent="0" />
        <mxCell id="JGenBf6Z7vixoJngJsFB-2" value="" style="shape=image;verticalLabelPosition=bottom;labelBackgroundColor=default;verticalAlign=top;aspect=fixed;imageAspect=0;image=https://cdn-avatars.huggingface.co/v1/production/uploads/1671615670447-6346651be2dcb5422bcd13dd.png;movable=0;resizable=0;rotatable=0;deletable=0;editable=0;locked=1;connectable=0;" vertex="1" parent="1">
          <mxGeometry x="220" y="240" width="40" height="40" as="geometry" />
        </mxCell>
        <mxCell id="JGenBf6Z7vixoJngJsFB-3" value="" style="shape=image;verticalLabelPosition=bottom;labelBackgroundColor=default;verticalAlign=top;aspect=fixed;imageAspect=0;image=https://huggingface.co/front/assets/huggingface_logo-noborder.svg;movable=0;resizable=0;rotatable=0;deletable=0;editable=0;locked=1;connectable=0;" vertex="1" parent="1">
          <mxGeometry x="158.41" y="240" width="43.18" height="40" as="geometry" />
        </mxCell>
        <mxCell id="JGenBf6Z7vixoJngJsFB-5" value="https://huggingface.co/" style="shape=image;verticalLabelPosition=bottom;labelBackgroundColor=default;verticalAlign=top;aspect=fixed;imageAspect=0;image=https://huggingface.co/front/assets/huggingface_logo-noborder.svg;" vertex="1" parent="1">
          <mxGeometry x="200" y="120" width="43.18" height="40" as="geometry" />
        </mxCell>
        <mxCell id="JGenBf6Z7vixoJngJsFB-6" value="&lt;h1 style=&quot;box-sizing: border-box; margin-right: 0px; margin-bottom: var(--base-size-16); margin-left: 0px; font-weight: var(--base-text-weight-semibold, 600); line-height: 1.25; padding-bottom: 0.3em; border-bottom: 1px solid var(--borderColor-muted, var(--color-border-muted)); color: rgb(31, 35, 40); font-family: -apple-system, BlinkMacSystemFont, &amp;quot;Segoe UI&amp;quot;, &amp;quot;Noto Sans&amp;quot;, Helvetica, Arial, sans-serif, &amp;quot;Apple Color Emoji&amp;quot;, &amp;quot;Segoe UI Emoji&amp;quot;; text-align: start; margin-top: 0px !important;&quot; dir=&quot;auto&quot; class=&quot;heading-element&quot; tabindex=&quot;-1&quot;&gt;&amp;nbsp; &amp;nbsp; &amp;nbsp; &amp;nbsp;OpenVINO™ GenAI&lt;/h1&gt;" style="rounded=1;whiteSpace=wrap;html=1;movable=1;resizable=1;rotatable=1;deletable=1;editable=1;locked=0;connectable=1;shadow=1;dashed=1;strokeColor=none;fillColor=#99CCFF;labelBackgroundColor=none;" vertex="1" parent="1">
          <mxGeometry x="520" y="240" width="360" height="80" as="geometry" />
        </mxCell>
        <mxCell id="JGenBf6Z7vixoJngJsFB-7" value="" style="shape=image;verticalLabelPosition=bottom;labelBackgroundColor=default;verticalAlign=top;aspect=fixed;imageAspect=0;image=https://cdn-avatars.huggingface.co/v1/production/uploads/1671615670447-6346651be2dcb5422bcd13dd.png;movable=1;resizable=1;rotatable=1;deletable=1;editable=1;locked=0;connectable=1;" vertex="1" parent="1">
          <mxGeometry x="560" y="260" width="40" height="40" as="geometry" />
        </mxCell>
        <mxCell id="JGenBf6Z7vixoJngJsFB-8" value="&lt;h1 style=&quot;box-sizing: border-box; margin-right: 0px; margin-bottom: var(--base-size-16); margin-left: 0px; font-weight: var(--base-text-weight-semibold, 600); line-height: 1.25; padding-bottom: 0.3em; border-bottom: 1px solid var(--borderColor-muted, var(--color-border-muted)); color: rgb(31, 35, 40); font-family: -apple-system, BlinkMacSystemFont, &amp;quot;Segoe UI&amp;quot;, &amp;quot;Noto Sans&amp;quot;, Helvetica, Arial, sans-serif, &amp;quot;Apple Color Emoji&amp;quot;, &amp;quot;Segoe UI Emoji&amp;quot;; text-align: start; margin-top: 0px !important;&quot; dir=&quot;auto&quot; class=&quot;heading-element&quot; tabindex=&quot;-1&quot;&gt;&amp;nbsp; &amp;nbsp; &amp;nbsp; &amp;nbsp; &amp;nbsp; OpenVINO™ Runtime&lt;/h1&gt;" style="rounded=1;whiteSpace=wrap;html=1;movable=1;resizable=1;rotatable=1;deletable=1;editable=1;locked=0;connectable=1;glass=0;fillColor=#99CCFF;labelBackgroundColor=none;strokeColor=none;" vertex="1" parent="1">
          <mxGeometry x="1000" y="240" width="360" height="80" as="geometry" />
        </mxCell>
        <mxCell id="JGenBf6Z7vixoJngJsFB-11" value="https://huggingface.co/OpenVINO" style="rounded=0;whiteSpace=wrap;html=1;strokeColor=none;" vertex="1" parent="1">
          <mxGeometry x="110" y="290" width="200" height="20" as="geometry" />
        </mxCell>
        <mxCell id="JGenBf6Z7vixoJngJsFB-15" value="" style="shape=image;verticalLabelPosition=bottom;labelBackgroundColor=default;verticalAlign=top;aspect=fixed;imageAspect=0;image=https://cdn-avatars.huggingface.co/v1/production/uploads/1671615670447-6346651be2dcb5422bcd13dd.png;movable=1;resizable=1;rotatable=1;deletable=1;editable=1;locked=0;connectable=1;" vertex="1" parent="1">
          <mxGeometry x="1040" y="260" width="40" height="40" as="geometry" />
        </mxCell>
        <mxCell id="JGenBf6Z7vixoJngJsFB-19" value="LLM of native OpenVINO IR" style="shape=image;verticalLabelPosition=bottom;labelBackgroundColor=default;verticalAlign=top;aspect=fixed;imageAspect=0;image=https://cdn-avatars.huggingface.co/v1/production/uploads/1671615670447-6346651be2dcb5422bcd13dd.png;movable=1;resizable=1;rotatable=1;deletable=1;editable=1;locked=0;connectable=1;" vertex="1" parent="1">
          <mxGeometry x="200" y="380" width="40" height="40" as="geometry" />
        </mxCell>
        <mxCell id="JGenBf6Z7vixoJngJsFB-20" value="" style="endArrow=classic;html=1;rounded=0;" edge="1" parent="1">
          <mxGeometry width="50" height="50" relative="1" as="geometry">
            <mxPoint x="300" y="160" as="sourcePoint" />
            <mxPoint x="480" y="260" as="targetPoint" />
            <Array as="points">
              <mxPoint x="360" y="160" />
            </Array>
          </mxGeometry>
        </mxCell>
        <mxCell id="JGenBf6Z7vixoJngJsFB-23" value="optimum-cli convert" style="edgeLabel;html=1;align=center;verticalAlign=middle;resizable=0;points=[];" vertex="1" connectable="0" parent="JGenBf6Z7vixoJngJsFB-20">
          <mxGeometry x="0.0596" y="-1" relative="1" as="geometry">
            <mxPoint x="-1" as="offset" />
          </mxGeometry>
        </mxCell>
        <mxCell id="JGenBf6Z7vixoJngJsFB-21" value="" style="endArrow=classic;html=1;rounded=0;" edge="1" parent="1">
          <mxGeometry width="50" height="50" relative="1" as="geometry">
            <mxPoint x="300" y="400" as="sourcePoint" />
            <mxPoint x="480" y="310" as="targetPoint" />
            <Array as="points">
              <mxPoint x="360" y="400" />
            </Array>
          </mxGeometry>
        </mxCell>
        <mxCell id="JGenBf6Z7vixoJngJsFB-25" value="directly" style="edgeLabel;html=1;align=center;verticalAlign=middle;resizable=0;points=[];" vertex="1" connectable="0" parent="JGenBf6Z7vixoJngJsFB-21">
          <mxGeometry x="0.0629" y="4" relative="1" as="geometry">
            <mxPoint as="offset" />
          </mxGeometry>
        </mxCell>
        <mxCell id="JGenBf6Z7vixoJngJsFB-22" value="" style="endArrow=classic;html=1;rounded=0;" edge="1" parent="1">
          <mxGeometry width="50" height="50" relative="1" as="geometry">
            <mxPoint x="300" y="280" as="sourcePoint" />
            <mxPoint x="480" y="280" as="targetPoint" />
          </mxGeometry>
        </mxCell>
        <mxCell id="JGenBf6Z7vixoJngJsFB-24" value="download" style="edgeLabel;html=1;align=center;verticalAlign=middle;resizable=0;points=[];" vertex="1" connectable="0" parent="JGenBf6Z7vixoJngJsFB-22">
          <mxGeometry x="-0.0778" y="1" relative="1" as="geometry">
            <mxPoint x="17" y="1" as="offset" />
          </mxGeometry>
        </mxCell>
        <mxCell id="JGenBf6Z7vixoJngJsFB-28" value="" style="endArrow=classic;html=1;rounded=0;" edge="1" parent="1">
          <mxGeometry width="50" height="50" relative="1" as="geometry">
            <mxPoint x="960" y="280" as="sourcePoint" />
            <mxPoint x="920" y="280" as="targetPoint" />
          </mxGeometry>
        </mxCell>
        <mxCell id="JGenBf6Z7vixoJngJsFB-29" value="" style="shape=flexArrow;endArrow=classic;html=1;rounded=0;fillColor=#FFCCCC;gradientColor=#3399FF;" edge="1" parent="1">
          <mxGeometry width="50" height="50" relative="1" as="geometry">
            <mxPoint x="700" y="160" as="sourcePoint" />
            <mxPoint x="700" y="220" as="targetPoint" />
          </mxGeometry>
        </mxCell>
        <mxCell id="JGenBf6Z7vixoJngJsFB-30" value="" style="shape=flexArrow;endArrow=classic;html=1;rounded=0;fillColor=#3399FF;gradientColor=#67AB9F;strokeColor=none;" edge="1" parent="1">
          <mxGeometry width="50" height="50" relative="1" as="geometry">
            <mxPoint x="700" y="340" as="sourcePoint" />
            <mxPoint x="700" y="400" as="targetPoint" />
          </mxGeometry>
        </mxCell>
        <mxCell id="JGenBf6Z7vixoJngJsFB-31" value="&lt;h1 tabindex=&quot;-1&quot; class=&quot;heading-element&quot; dir=&quot;auto&quot; style=&quot;forced-color-adjust: none; font-style: normal; font-variant-ligatures: normal; font-variant-caps: normal; letter-spacing: normal; orphans: 2; text-indent: 0px; text-transform: none; widows: 2; word-spacing: 0px; -webkit-text-stroke-width: 0px; white-space: normal; background-color: rgb(251, 251, 251); text-decoration-thickness: initial; text-decoration-style: initial; text-decoration-color: initial; box-sizing: border-box; margin-right: 0px; margin-bottom: var(--base-size-16); margin-left: 0px; font-weight: var(--base-text-weight-semibold, 600); line-height: 1.25; padding-bottom: 0.3em; border-bottom: 1px solid var(--borderColor-muted, var(--color-border-muted)); font-family: -apple-system, BlinkMacSystemFont, &amp;quot;Segoe UI&amp;quot;, &amp;quot;Noto Sans&amp;quot;, Helvetica, Arial, sans-serif, &amp;quot;Apple Color Emoji&amp;quot;, &amp;quot;Segoe UI Emoji&amp;quot;; text-align: start; margin-top: 0px !important;&quot;&gt;&lt;font color=&quot;#ea6b66&quot;&gt;input&lt;/font&gt;&lt;/h1&gt;" style="text;whiteSpace=wrap;html=1;" vertex="1" parent="1">
          <mxGeometry x="670" y="100" width="60" height="40" as="geometry" />
        </mxCell>
        <mxCell id="JGenBf6Z7vixoJngJsFB-32" value="&lt;h1 tabindex=&quot;-1&quot; class=&quot;heading-element&quot; dir=&quot;auto&quot; style=&quot;forced-color-adjust: none; font-style: normal; font-variant-ligatures: normal; font-variant-caps: normal; letter-spacing: normal; orphans: 2; text-indent: 0px; text-transform: none; widows: 2; word-spacing: 0px; -webkit-text-stroke-width: 0px; white-space: normal; text-decoration-thickness: initial; text-decoration-style: initial; text-decoration-color: initial; box-sizing: border-box; margin-right: 0px; margin-bottom: var(--base-size-16); margin-left: 0px; font-weight: var(--base-text-weight-semibold, 600); line-height: 1.25; padding-bottom: 0.3em; border-bottom: 1px solid var(--borderColor-muted, var(--color-border-muted)); font-family: -apple-system, BlinkMacSystemFont, &amp;quot;Segoe UI&amp;quot;, &amp;quot;Noto Sans&amp;quot;, Helvetica, Arial, sans-serif, &amp;quot;Apple Color Emoji&amp;quot;, &amp;quot;Segoe UI Emoji&amp;quot;; text-align: start; background-color: rgb(255, 255, 255); margin-top: 0px !important;&quot;&gt;&lt;font color=&quot;#67ab9f&quot;&gt;output&lt;/font&gt;&lt;/h1&gt;" style="text;whiteSpace=wrap;html=1;" vertex="1" parent="1">
          <mxGeometry x="660" y="410" width="80" height="40" as="geometry" />
        </mxCell>
        <mxCell id="JGenBf6Z7vixoJngJsFB-33" value="model path 1" style="text;html=1;align=center;verticalAlign=middle;whiteSpace=wrap;rounded=0;" vertex="1" parent="1">
          <mxGeometry y="140" width="100" height="30" as="geometry" />
        </mxCell>
        <mxCell id="JGenBf6Z7vixoJngJsFB-36" value="model path 2" style="text;html=1;align=center;verticalAlign=middle;whiteSpace=wrap;rounded=0;" vertex="1" parent="1">
          <mxGeometry y="265" width="100" height="30" as="geometry" />
        </mxCell>
        <mxCell id="JGenBf6Z7vixoJngJsFB-37" value="model path 3" style="text;html=1;align=center;verticalAlign=middle;whiteSpace=wrap;rounded=0;" vertex="1" parent="1">
          <mxGeometry y="390" width="100" height="30" as="geometry" />
        </mxCell>
      </root>
    </mxGraphModel>
  </diagram>
</mxfile>
